# xmcd
#
# Track frame offsets:
#	150
#	13080
#	27662
#	40165
#	50655
#	61395
#	73372
#	87685
#	99785
#	108925
#	120397
#	130102
#	145890
#	155555
#	169785
#	186280
#	198012
#	210192
#	222730
#	234842
#
# Disc length: 3305
#
# Revision: 1
# Processed by: cddbd v1.5.1PL0 Copyright (c) Steve Scherf et al.
# Submitted via: VisiTrax 2.9.7.197 - For more info visit www.synapsa.com
# Normalized: r0:DSETVAR1
#
DISCID=1f0ce714
DTITLE=Various Artist - I Fall to Pieces: 20 Country Classics
DYEAR=1992
DGENRE=Country
TTITLE0=Faron Young - It's Four in the Morning
TTITLE1=Jeannie C. Riley - Harper Valley PTA
TTITLE2=Leroy Van Dyke - The Auctioneer
TTITLE3=Freddy Fender - Before the Next Teardrop Falls
TTITLE4=Hank Locklin - Please Help Me I'm Falling
TTITLE5=Skeeter Davis - The End of the World
TTITLE6=George Jones - A Good Year for the Roses
TTITLE7=Jimmy C. Newman - Jambalaya (On The Bayou)
TTITLE8=Webb Pierce - Honky Tong Song
TTITLE9=Willie Nelson - Nightlife
TTITLE10=Ned Miller - From a Jack to a King
TTITLE11=Rod Hart - C.B. Savage
TTITLE12=Dave Dudley - 6 Days on the Road
TTITLE13=Rita Remington - Angel of the Morning
TTITLE14=Jimmy Davis - You Are My Sunshine
TTITLE15=David Allan Coe - Got You on my Mind
TTITLE16=Johnny Cash - I Walk the Line
TTITLE17=Randy Travis - Dreaming
TTITLE18=Jerry Lee Lewis - Born to Lose
TTITLE19=Wanda Jackson - I Fall to Pieces
EXTD=
EXTT0=
EXTT1=
EXTT2=
EXTT3=
EXTT4=
EXTT5=
EXTT6=
EXTT7=
EXTT8=
EXTT9=
EXTT10=
EXTT11=
EXTT12=
EXTT13=
EXTT14=
EXTT15=
EXTT16=
EXTT17=
EXTT18=
EXTT19=
PLAYORDER=
